<svg width="644" height="323" viewBox="0 0 644 323" fill="none" xmlns="http://www.w3.org/2000/svg">
<g clip-path="url(#clip0_3_58)">
<rect width="644" height="321.553" transform="matrix(-1 0 0 1 644 0.723633)"/>
<rect width="644" height="321.553" transform="matrix(-1 0 0 1 644 0.723633)" fill="url(#paint0_radial_3_58)" fill-opacity="0.08"/>
<path d="M617.167 0.723633L26.8334 0.723581" stroke="url(#paint1_linear_3_58)" stroke-width="0.447222"/>
<path d="M867.102 1H921V55.0163M867.102 1H813.205M867.102 1V55.0163M813.205 1H759.307M813.205 1V55.0163M759.307 1H705.409M759.307 1V55.0163M705.409 1H651.512M705.409 1V55.0163M651.512 1H597.614M651.512 1V55.0163M597.614 1H543.716M597.614 1V55.0163M543.716 1H489.819M543.716 1V55.0163M489.819 1H435.921M489.819 1V55.0163M435.921 1H382.023M435.921 1V55.0163M382.023 1H328.126M382.023 1V55.0163M328.126 1H274.228M328.126 1V55.0163M274.228 1H220.33M274.228 1V55.0163M220.33 1H166.433M220.33 1V55.0163M166.433 1H112.535M166.433 1V55.0163M112.535 1H58.6373M112.535 1V55.0163M58.6373 1H4.7396V55.0163M58.6373 1V55.0163M867.102 55.0163H921M867.102 55.0163H813.205M867.102 55.0163V109.033M921 55.0163V109.033M813.205 55.0163H759.307M813.205 55.0163V109.033M759.307 55.0163H705.409M759.307 55.0163V109.033M705.409 55.0163H651.512M705.409 55.0163V109.033M651.512 55.0163H597.614M651.512 55.0163V109.033M597.614 55.0163H543.716M597.614 55.0163V109.033M543.716 55.0163H489.819M543.716 55.0163V109.033M489.819 55.0163H435.921M489.819 55.0163V109.033M435.921 55.0163H382.023M435.921 55.0163V109.033M382.023 55.0163H328.126M382.023 55.0163V109.033M328.126 55.0163H274.228M328.126 55.0163V109.033M274.228 55.0163H220.33M274.228 55.0163V109.033M220.33 55.0163H166.433M220.33 55.0163V109.033M166.433 55.0163H112.535M166.433 55.0163V109.033M112.535 55.0163H58.6373M112.535 55.0163V109.033M58.6373 55.0163H4.7396M58.6373 55.0163V109.033M4.7396 55.0163V109.033M867.102 109.033H921M867.102 109.033H813.205M867.102 109.033V163.049M921 109.033V163.049M813.205 109.033H759.307M813.205 109.033V163.049M759.307 109.033H705.409M759.307 109.033V163.049M705.409 109.033H651.512M705.409 109.033V163.049M651.512 109.033H597.614M651.512 109.033V163.049M597.614 109.033H543.716M597.614 109.033V163.049M543.716 109.033H489.819M543.716 109.033V163.049M489.819 109.033H435.921M489.819 109.033V163.049M435.921 109.033H382.023M435.921 109.033V163.049M382.023 109.033H328.126M382.023 109.033V163.049M328.126 109.033H274.228M328.126 109.033V163.049M274.228 109.033H220.33M274.228 109.033V163.049M220.33 109.033H166.433M220.33 109.033V163.049M166.433 109.033H112.535M166.433 109.033V163.049M112.535 109.033H58.6373M112.535 109.033V163.049M58.6373 109.033H4.7396M58.6373 109.033V163.049M4.7396 109.033V163.049M867.102 163.049H921M867.102 163.049H813.205M867.102 163.049V217.065M921 163.049V217.065M813.205 163.049H759.307M813.205 163.049V217.065M759.307 163.049H705.409M759.307 163.049V217.065M705.409 163.049H651.512M705.409 163.049V217.065M651.512 163.049H597.614M651.512 163.049V217.065M597.614 163.049H543.716M597.614 163.049V217.065M543.716 163.049H489.819M543.716 163.049V217.065M489.819 163.049H435.921M489.819 163.049V217.065M435.921 163.049H382.023M435.921 163.049V217.065M382.023 163.049H328.126M382.023 163.049V217.065M328.126 163.049H274.228M328.126 163.049V217.065M274.228 163.049H220.33M274.228 163.049V217.065M220.33 163.049H166.433M220.33 163.049V217.065M166.433 163.049H112.535M166.433 163.049V217.065M112.535 163.049H58.6373M112.535 163.049V217.065M58.6373 163.049H4.7396M58.6373 163.049V217.065M4.7396 163.049V217.065M867.102 217.065H921M867.102 217.065H813.205M867.102 217.065V271.082M921 217.065V271.082M813.205 217.065H759.307M813.205 217.065V271.082M759.307 217.065H705.409M759.307 217.065V271.082M705.409 217.065H651.512M705.409 217.065V271.082M651.512 217.065H597.614M651.512 217.065V271.082M597.614 217.065H543.716M597.614 217.065V271.082M543.716 217.065H489.819M543.716 217.065V271.082M489.819 217.065H435.921M489.819 217.065V271.082M435.921 217.065H382.023M435.921 217.065V271.082M382.023 217.065H328.126M382.023 217.065V271.082M328.126 217.065H274.228M328.126 217.065V271.082M274.228 217.065H220.33M274.228 217.065V271.082M220.33 217.065H166.433M220.33 217.065V271.082M166.433 217.065H112.535M166.433 217.065V271.082M112.535 217.065H58.6373M112.535 217.065V271.082M58.6373 217.065H4.7396M58.6373 217.065V271.082M4.7396 217.065V271.082M867.102 271.082H921M867.102 271.082H813.205M867.102 271.082V325.098M921 271.082V325.098H867.102M813.205 271.082H759.307M813.205 271.082V325.098M759.307 271.082H705.409M759.307 271.082V325.098M705.409 271.082H651.512M705.409 271.082V325.098M651.512 271.082H597.614M651.512 271.082V325.098M597.614 271.082H543.716M597.614 271.082V325.098M543.716 271.082H489.819M543.716 271.082V325.098M489.819 271.082H435.921M489.819 271.082V325.098M435.921 271.082H382.023M435.921 271.082V325.098M382.023 271.082H328.126M382.023 271.082V325.098M328.126 271.082H274.228M328.126 271.082V325.098M274.228 271.082H220.33M274.228 271.082V325.098M220.33 271.082H166.433M220.33 271.082V325.098M166.433 271.082H112.535M166.433 271.082V325.098M112.535 271.082H58.6373M112.535 271.082V325.098M58.6373 271.082H4.7396M58.6373 271.082V325.098M4.7396 271.082V325.098H58.6373M867.102 325.098H813.205M813.205 325.098H759.307M759.307 325.098H705.409M705.409 325.098H651.512M651.512 325.098H597.614M597.614 325.098H543.716M543.716 325.098H489.819M489.819 325.098H435.921M435.921 325.098H382.023M382.023 325.098H328.126M328.126 325.098H274.228M274.228 325.098H220.33M220.33 325.098H166.433M166.433 325.098H112.535M112.535 325.098H58.6373" stroke="url(#paint2_radial_3_58)" stroke-opacity="0.05" stroke-width="0.694"/>
</g>
<defs>
<radialGradient id="paint0_radial_3_58" cx="0" cy="0" r="1" gradientUnits="userSpaceOnUse" gradientTransform="translate(322) rotate(90) scale(137.732 275.847)">
<stop stop-color="white"/>
<stop offset="1" stop-color="white" stop-opacity="0"/>
</radialGradient>
<linearGradient id="paint1_linear_3_58" x1="617.167" y1="-49.7516" x2="26.8181" y2="-51.2517" gradientUnits="userSpaceOnUse">
<stop/>
<stop offset="0.515" stop-color="#7F7F7F"/>
<stop offset="1"/>
</linearGradient>
<radialGradient id="paint2_radial_3_58" cx="0" cy="0" r="1" gradientUnits="userSpaceOnUse" gradientTransform="translate(462.87 18.3129) rotate(90) scale(306.092 458.821)">
<stop stop-color="white"/>
<stop offset="1" stop-color="white" stop-opacity="0"/>
</radialGradient>
<clipPath id="clip0_3_58">
<rect width="644" height="321.553" fill="white" transform="matrix(-1 0 0 1 644 0.723633)"/>
</clipPath>
</defs>
</svg>
