<svg width="1440" height="630" viewBox="0 0 1440 630" fill="none" xmlns="http://www.w3.org/2000/svg">
<line y1="-0.5" x2="1056.65" y2="-0.5" transform="matrix(0.429952 -0.902852 0.429952 0.902852 -119 458)" stroke="url(#paint0_linear_2_333)"/>
<line y1="-0.5" x2="1056.65" y2="-0.5" transform="matrix(0.429952 -0.902852 0.429952 0.902852 79 458)" stroke="url(#paint1_linear_2_333)"/>
<line y1="-0.5" x2="1056.65" y2="-0.5" transform="matrix(0.429952 -0.902852 0.429952 0.902852 277 458)" stroke="url(#paint2_linear_2_333)"/>
<line y1="-0.5" x2="1056.65" y2="-0.5" transform="matrix(0.429952 -0.902852 0.429952 0.902852 475 458)" stroke="url(#paint3_linear_2_333)"/>
<line y1="-0.5" x2="1056.65" y2="-0.5" transform="matrix(0.429952 -0.902852 0.429952 0.902852 673 458)" stroke="url(#paint4_linear_2_333)"/>
<line y1="-0.5" x2="1056.65" y2="-0.5" transform="matrix(0.429952 -0.902852 0.429952 0.902852 871 458)" stroke="url(#paint5_linear_2_333)"/>
<line y1="-0.5" x2="1056.65" y2="-0.5" transform="matrix(0.429952 -0.902852 0.429952 0.902852 1069 458)" stroke="url(#paint6_linear_2_333)"/>
<circle cx="871" cy="-795" r="968.5" stroke="url(#paint7_linear_2_333)" stroke-opacity="0.39"/>
<circle cx="871" cy="-628" r="968.5" stroke="url(#paint8_linear_2_333)" stroke-opacity="0.39"/>
<g opacity="0.3">
<path d="M295.497 1.99872L307.184 -21.9141" stroke="url(#paint9_linear_2_333)"/>
</g>
<g opacity="0.3">
<path d="M236.501 103.499L256.001 120.499" stroke="url(#paint10_linear_2_333)"/>
<path d="M237.431 124.913L249.117 101" stroke="url(#paint11_linear_2_333)"/>
</g>
<g opacity="0.29">
<path d="M445 74.9998L468 85.9998" stroke="url(#paint12_linear_2_333)"/>
<path d="M451.016 92.0037L461.991 68.9922" stroke="url(#paint13_linear_2_333)"/>
</g>
<path d="M381.603 207.898L403.501 220.5" stroke="url(#paint14_linear_2_333)"/>
<path d="M387.017 226.012L397.993 203" stroke="url(#paint15_linear_2_333)"/>
<path d="M613 138.5L638.5 145.5" stroke="url(#paint16_linear_2_333)"/>
<path d="M619 154.5L630.5 130.5" stroke="url(#paint17_linear_2_333)"/>
<g opacity="0.29">
<path d="M542.5 283.5L570 293" stroke="url(#paint18_linear_2_333)"/>
<path d="M549.023 301L560.5 277.5" stroke="url(#paint19_linear_2_333)"/>
</g>
<g opacity="0.29">
<path d="M794 170.5L821 172" stroke="url(#paint20_linear_2_333)"/>
<path d="M802.023 186L813.523 162" stroke="url(#paint21_linear_2_333)"/>
</g>
<path d="M718.266 328.492L745.5 332.5" stroke="url(#paint22_linear_2_333)"/>
<path d="M726 346L738 321" stroke="url(#paint23_linear_2_333)"/>
<g opacity="0.3">
<path d="M995 166L1023.2 161.81" stroke="url(#paint24_linear_2_333)"/>
<path d="M1004.02 177L1015.52 153" stroke="url(#paint25_linear_2_333)"/>
</g>
<g opacity="0.3">
<path d="M912 339.999L940.5 337.999" stroke="url(#paint26_linear_2_333)"/>
<path d="M921.023 352.999L932.523 328.999" stroke="url(#paint27_linear_2_333)"/>
</g>
<g opacity="0.32">
<path d="M1223.5 107L1250 96.5" stroke="url(#paint28_linear_2_333)"/>
<path d="M1230 119L1245 88" stroke="url(#paint29_linear_2_333)"/>
</g>
<g opacity="0.32">
<path d="M1127.5 306.5L1155.5 298" stroke="url(#paint30_linear_2_333)"/>
<path d="M1136.02 316.5L1148.52 291" stroke="url(#paint31_linear_2_333)"/>
</g>
<rect x="1441" y="517" width="1440" height="424" transform="rotate(-180 1441 517)" fill="url(#paint32_linear_2_333)"/>
<rect x="-2" y="-2" width="1440" height="632" fill="url(#paint33_linear_2_333)"/>
<defs>
<linearGradient id="paint0_linear_2_333" x1="742.592" y1="0.971416" x2="152.041" y2="0.971386" gradientUnits="userSpaceOnUse">
<stop stop-color="#3D3D3D" stop-opacity="0"/>
<stop offset="1" stop-color="#2D2929"/>
</linearGradient>
<linearGradient id="paint1_linear_2_333" x1="742.592" y1="0.971416" x2="152.041" y2="0.971386" gradientUnits="userSpaceOnUse">
<stop stop-color="#3D3D3D" stop-opacity="0"/>
<stop offset="1" stop-color="#2D2929"/>
</linearGradient>
<linearGradient id="paint2_linear_2_333" x1="742.592" y1="0.971416" x2="152.041" y2="0.971386" gradientUnits="userSpaceOnUse">
<stop stop-color="#3D3D3D" stop-opacity="0"/>
<stop offset="1" stop-color="#2D2929"/>
</linearGradient>
<linearGradient id="paint3_linear_2_333" x1="742.592" y1="0.971416" x2="152.041" y2="0.971386" gradientUnits="userSpaceOnUse">
<stop stop-color="#3D3D3D" stop-opacity="0"/>
<stop offset="1" stop-color="#2D2929"/>
</linearGradient>
<linearGradient id="paint4_linear_2_333" x1="742.592" y1="0.971416" x2="152.041" y2="0.971386" gradientUnits="userSpaceOnUse">
<stop stop-color="#3D3D3D" stop-opacity="0"/>
<stop offset="1" stop-color="#2D2929"/>
</linearGradient>
<linearGradient id="paint5_linear_2_333" x1="742.592" y1="0.971416" x2="152.041" y2="0.971386" gradientUnits="userSpaceOnUse">
<stop stop-color="#3D3D3D" stop-opacity="0"/>
<stop offset="1" stop-color="#2D2929"/>
</linearGradient>
<linearGradient id="paint6_linear_2_333" x1="742.592" y1="0.971416" x2="152.041" y2="0.971386" gradientUnits="userSpaceOnUse">
<stop stop-color="#3D3D3D" stop-opacity="0"/>
<stop offset="1" stop-color="#2D2929"/>
</linearGradient>
<linearGradient id="paint7_linear_2_333" x1="871" y1="-1764" x2="871" y2="174" gradientUnits="userSpaceOnUse">
<stop offset="0.795" stop-color="#3F3F3F" stop-opacity="0"/>
<stop offset="1" stop-color="#3A3A3A"/>
</linearGradient>
<linearGradient id="paint8_linear_2_333" x1="871" y1="-1597" x2="871" y2="341" gradientUnits="userSpaceOnUse">
<stop offset="0.795" stop-color="#3F3F3F" stop-opacity="0"/>
<stop offset="1" stop-color="#3A3A3A"/>
</linearGradient>
<linearGradient id="paint9_linear_2_333" x1="295.505" y1="1.02208" x2="305.544" y2="-21.9023" gradientUnits="userSpaceOnUse">
<stop stop-color="white" stop-opacity="0"/>
<stop offset="0.49" stop-color="white"/>
<stop offset="1" stop-color="white" stop-opacity="0"/>
</linearGradient>
<linearGradient id="paint10_linear_2_333" x1="238.638" y1="105.304" x2="258.046" y2="115.102" gradientUnits="userSpaceOnUse">
<stop stop-color="white" stop-opacity="0"/>
<stop offset="0.49" stop-color="white"/>
<stop offset="1" stop-color="white" stop-opacity="0"/>
</linearGradient>
<linearGradient id="paint11_linear_2_333" x1="237.438" y1="123.936" x2="247.477" y2="101.012" gradientUnits="userSpaceOnUse">
<stop stop-color="white" stop-opacity="0"/>
<stop offset="0.49" stop-color="white"/>
<stop offset="1" stop-color="white" stop-opacity="0"/>
</linearGradient>
<linearGradient id="paint12_linear_2_333" x1="447.509" y1="76.1577" x2="468.24" y2="83.4784" gradientUnits="userSpaceOnUse">
<stop stop-color="white" stop-opacity="0"/>
<stop offset="0.49" stop-color="white"/>
<stop offset="1" stop-color="white" stop-opacity="0"/>
</linearGradient>
<linearGradient id="paint13_linear_2_333" x1="451.037" y1="91.0561" x2="461.592" y2="69.5099" gradientUnits="userSpaceOnUse">
<stop stop-color="white" stop-opacity="0"/>
<stop offset="0.49" stop-color="white"/>
<stop offset="1" stop-color="white" stop-opacity="0"/>
</linearGradient>
<linearGradient id="paint14_linear_2_333" x1="382.101" y1="207.948" x2="403.404" y2="221.116" gradientUnits="userSpaceOnUse">
<stop stop-color="white" stop-opacity="0"/>
<stop offset="0.49" stop-color="white"/>
<stop offset="1" stop-color="white" stop-opacity="0"/>
</linearGradient>
<linearGradient id="paint15_linear_2_333" x1="387.017" y1="225.512" x2="397.993" y2="203" gradientUnits="userSpaceOnUse">
<stop stop-color="white" stop-opacity="0"/>
<stop offset="0.49" stop-color="white"/>
<stop offset="1" stop-color="white" stop-opacity="0"/>
</linearGradient>
<linearGradient id="paint16_linear_2_333" x1="615.782" y1="139.237" x2="634.534" y2="150.774" gradientUnits="userSpaceOnUse">
<stop stop-color="white" stop-opacity="0"/>
<stop offset="0.49" stop-color="white"/>
<stop offset="1" stop-color="white" stop-opacity="0"/>
</linearGradient>
<linearGradient id="paint17_linear_2_333" x1="619.023" y1="153.512" x2="629.999" y2="131" gradientUnits="userSpaceOnUse">
<stop stop-color="white" stop-opacity="0"/>
<stop offset="0.49" stop-color="white"/>
<stop offset="1" stop-color="white" stop-opacity="0"/>
</linearGradient>
<linearGradient id="paint18_linear_2_333" x1="545.5" y1="284.5" x2="568" y2="295.5" gradientUnits="userSpaceOnUse">
<stop stop-color="white" stop-opacity="0"/>
<stop offset="0.49" stop-color="white"/>
<stop offset="1" stop-color="white" stop-opacity="0"/>
</linearGradient>
<linearGradient id="paint19_linear_2_333" x1="549.046" y1="300.032" x2="559.668" y2="277.831" gradientUnits="userSpaceOnUse">
<stop stop-color="white" stop-opacity="0"/>
<stop offset="0.49" stop-color="white"/>
<stop offset="1" stop-color="white" stop-opacity="0"/>
</linearGradient>
<linearGradient id="paint20_linear_2_333" x1="796.941" y1="170.639" x2="817.29" y2="179.215" gradientUnits="userSpaceOnUse">
<stop stop-color="white" stop-opacity="0"/>
<stop offset="0.49" stop-color="white"/>
<stop offset="1" stop-color="white" stop-opacity="0"/>
</linearGradient>
<linearGradient id="paint21_linear_2_333" x1="802.046" y1="185.012" x2="813.023" y2="162.5" gradientUnits="userSpaceOnUse">
<stop stop-color="white" stop-opacity="0"/>
<stop offset="0.49" stop-color="white"/>
<stop offset="1" stop-color="white" stop-opacity="0"/>
</linearGradient>
<linearGradient id="paint22_linear_2_333" x1="721.236" y1="328.91" x2="737.086" y2="341.88" gradientUnits="userSpaceOnUse">
<stop stop-color="white" stop-opacity="0"/>
<stop offset="0.49" stop-color="white"/>
<stop offset="1" stop-color="white" stop-opacity="0"/>
</linearGradient>
<linearGradient id="paint23_linear_2_333" x1="726.024" y1="344.971" x2="737.445" y2="321.505" gradientUnits="userSpaceOnUse">
<stop stop-color="white" stop-opacity="0"/>
<stop offset="0.49" stop-color="white"/>
<stop offset="1" stop-color="white" stop-opacity="0"/>
</linearGradient>
<linearGradient id="paint24_linear_2_333" x1="997.545" y1="167.366" x2="1022" y2="161.671" gradientUnits="userSpaceOnUse">
<stop stop-color="white" stop-opacity="0"/>
<stop offset="0.49" stop-color="white"/>
<stop offset="1" stop-color="white" stop-opacity="0"/>
</linearGradient>
<linearGradient id="paint25_linear_2_333" x1="1004.05" y1="176.012" x2="1015.02" y2="153.5" gradientUnits="userSpaceOnUse">
<stop stop-color="white" stop-opacity="0"/>
<stop offset="0.49" stop-color="white"/>
<stop offset="1" stop-color="white" stop-opacity="0"/>
</linearGradient>
<linearGradient id="paint26_linear_2_333" x1="914.749" y1="341.836" x2="938.481" y2="335.005" gradientUnits="userSpaceOnUse">
<stop stop-color="white" stop-opacity="0"/>
<stop offset="0.49" stop-color="white"/>
<stop offset="1" stop-color="white" stop-opacity="0"/>
</linearGradient>
<linearGradient id="paint27_linear_2_333" x1="921.046" y1="352.011" x2="932.023" y2="329.499" gradientUnits="userSpaceOnUse">
<stop stop-color="white" stop-opacity="0"/>
<stop offset="0.49" stop-color="white"/>
<stop offset="1" stop-color="white" stop-opacity="0"/>
</linearGradient>
<linearGradient id="paint28_linear_2_333" x1="1225.38" y1="106.942" x2="1246.12" y2="111.078" gradientUnits="userSpaceOnUse">
<stop stop-color="white" stop-opacity="0"/>
<stop offset="0.49" stop-color="white"/>
<stop offset="1" stop-color="white" stop-opacity="0"/>
</linearGradient>
<linearGradient id="paint29_linear_2_333" x1="1230.06" y1="116.312" x2="1243.17" y2="88.6576" gradientUnits="userSpaceOnUse">
<stop stop-color="white" stop-opacity="0"/>
<stop offset="0.55" stop-color="white"/>
<stop offset="1" stop-color="white" stop-opacity="0"/>
</linearGradient>
<linearGradient id="paint30_linear_2_333" x1="1129.69" y1="306.969" x2="1154.71" y2="305.902" gradientUnits="userSpaceOnUse">
<stop stop-color="white" stop-opacity="0"/>
<stop offset="0.49" stop-color="white"/>
<stop offset="1" stop-color="white" stop-opacity="0"/>
</linearGradient>
<linearGradient id="paint31_linear_2_333" x1="1136.05" y1="315.45" x2="1147.55" y2="291.325" gradientUnits="userSpaceOnUse">
<stop stop-color="white" stop-opacity="0"/>
<stop offset="0.49" stop-color="white"/>
<stop offset="1" stop-color="white" stop-opacity="0"/>
</linearGradient>
<linearGradient id="paint32_linear_2_333" x1="2161" y1="517" x2="2161" y2="880.545" gradientUnits="userSpaceOnUse">
<stop/>
<stop offset="1" stop-opacity="0"/>
</linearGradient>
<linearGradient id="paint33_linear_2_333" x1="718" y1="-334.5" x2="718" y2="630" gradientUnits="userSpaceOnUse">
<stop stop-color="#8F00FF"/>
<stop offset="0.829151" stop-color="#8F00FF" stop-opacity="0"/>
</linearGradient>
</defs>
</svg>
