<svg xmlns="http://www.w3.org/2000/svg" width="101" height="26" viewBox="0 0 101 26" fill="none">
  <g clip-path="url(#clip0_242_360)">
    <path d="M7.55074 6.88086C8.89943 6.88086 10.1119 7.17452 11.1882 7.76184C12.2631 8.34916 13.1031 9.20612 13.7093 10.33C14.3182 11.4553 14.6227 12.8101 14.6227 14.3932V21.6119C14.6227 22.0431 14.4798 22.4008 14.1954 22.6851C13.9136 22.9668 13.5571 23.1069 13.1271 23.1069C12.6958 23.1069 12.3379 22.9668 12.0535 22.6851C11.7677 22.4008 11.6262 22.0431 11.6262 21.6119V14.3932C11.6262 12.8101 11.2002 11.6115 10.3496 10.7999C9.49766 9.98832 8.3693 9.58254 6.96319 9.58254C6.14063 9.58254 5.39017 9.75073 4.71449 10.0844C4.04148 10.4155 3.51268 10.864 3.12811 11.4299C2.7462 11.9959 2.55658 12.6313 2.55658 13.3361V21.6119C2.55658 22.0431 2.41904 22.4008 2.1453 22.6851C1.87022 22.9668 1.50968 23.1069 1.06101 23.1069C0.629693 23.1069 0.271823 22.9668 -0.012604 22.6851C-0.29436 22.4008 -0.43457 22.0431 -0.43457 21.6119V8.52536C-0.43457 8.07686 -0.29436 7.71646 -0.012604 7.44148C0.271823 7.16785 0.629693 7.03036 1.06101 7.03036C1.50968 7.03036 1.87022 7.16785 2.1453 7.44148C2.41904 7.71646 2.55658 8.07686 2.55658 8.52536V8.84572C3.18286 8.22369 3.92664 7.74048 4.78927 7.39877C5.65056 7.05439 6.5706 6.88086 7.55074 6.88086Z" fill="white"/>
    <path d="M32.8195 6.99805C33.2708 6.99805 33.634 7.13553 33.9091 7.40917C34.1829 7.68414 34.3204 8.04455 34.3204 8.49305V21.585C34.3204 22.0161 34.1829 22.3739 33.9091 22.6582C33.634 22.9398 33.2708 23.08 32.8195 23.08C32.3882 23.08 32.0303 22.9398 31.7459 22.6582C31.4641 22.3739 31.3239 22.0161 31.3239 21.585V21.2593C30.6963 21.8866 29.9525 22.3699 29.0912 22.7116C28.2326 23.0533 27.3139 23.2241 26.3351 23.2241C24.9811 23.2241 23.7672 22.9331 22.6923 22.3485C21.616 21.7612 20.7748 20.9056 20.1658 19.7803C19.5596 18.6564 19.2578 17.3015 19.2578 15.7171V8.49305C19.2578 8.0659 19.3994 7.71084 19.6851 7.42519C19.9695 7.14087 20.3261 6.99805 20.7534 6.99805C21.1834 6.99805 21.5412 7.14087 21.827 7.42519C22.1114 7.71084 22.2543 8.0659 22.2543 8.49305V15.7171C22.2543 17.3015 22.6789 18.4989 23.5309 19.3104C24.3815 20.122 25.5125 20.5278 26.9226 20.5278C27.7412 20.5278 28.489 20.3623 29.166 20.0312C29.8417 19.6975 30.3705 19.2464 30.7524 18.6804C31.133 18.1118 31.3239 17.4737 31.3239 16.7689V8.49305C31.3239 8.04455 31.4641 7.68414 31.7459 7.40917C32.0303 7.13553 32.3882 6.99805 32.8195 6.99805Z" fill="white"/>
    <path d="M46.8831 23.1974C45.3341 23.1974 43.9427 22.845 42.7115 22.1402C41.479 21.4355 40.5162 20.4624 39.8218 19.2197C39.1275 17.9783 38.7803 16.5954 38.7803 15.071C38.7803 13.5053 39.1168 12.101 39.7898 10.8583C40.4655 9.61695 41.4096 8.64787 42.6207 7.95376C43.8345 7.25965 45.2059 6.9126 46.7335 6.9126C49.0437 6.9126 50.9612 7.79225 52.4862 9.5502C52.6811 9.76778 52.7799 10.0227 52.7799 10.3137C52.7799 10.7449 52.5636 11.1079 52.1336 11.4029C51.9373 11.5391 51.713 11.6058 51.4606 11.6058C51.012 11.6058 50.63 11.4296 50.3176 11.0772C49.8262 10.5513 49.292 10.1642 48.7152 9.91862C48.1383 9.67301 47.4773 9.5502 46.7335 9.5502C45.2273 9.5502 44.0041 10.0548 43.064 11.0612C42.124 12.069 41.6539 13.4052 41.6539 15.071C41.6539 16.1255 41.8742 17.0679 42.3162 17.9008C42.7569 18.7338 43.3738 19.3852 44.1644 19.855C44.9575 20.3222 45.8642 20.5545 46.8831 20.5545C48.2104 20.5545 49.2867 20.2128 50.1093 19.5293C50.4832 19.2557 50.8464 19.1182 51.1989 19.1182C51.4726 19.1182 51.725 19.2076 51.9574 19.3852C52.3313 19.6948 52.5182 20.0459 52.5182 20.437C52.5182 20.7333 52.4007 20.9976 52.1657 21.2326C50.7556 22.5434 48.9943 23.1974 46.8831 23.1974Z" fill="white"/>
    <path d="M64.5247 6.9126C66.031 6.9126 67.3943 7.27033 68.6162 7.98579C69.8407 8.69859 70.8088 9.67568 71.5219 10.9171C72.2376 12.1598 72.5955 13.544 72.5955 15.071V21.6117C72.5955 22.0428 72.4526 22.4005 72.1682 22.6848C71.8864 22.9665 71.5299 23.1067 71.0999 23.1067C70.6686 23.1067 70.3107 22.9665 70.0263 22.6848C69.7405 22.4005 69.599 22.0428 69.599 21.6117V20.5278C68.9153 21.3687 68.0834 22.0228 67.1046 22.4926C66.1244 22.9625 65.0695 23.1974 63.9371 23.1974C62.527 23.1974 61.2478 22.845 60.1021 22.1402C58.959 21.4355 58.059 20.4624 57.4047 19.2197C56.749 17.9783 56.4219 16.5954 56.4219 15.071C56.4219 13.544 56.7717 12.1598 57.4741 10.9171C58.1792 9.67568 59.1526 8.69859 60.3958 7.98579C61.6377 7.27033 63.0144 6.9126 64.5247 6.9126ZM64.5247 20.5545C65.4995 20.5545 66.3848 20.3169 67.1793 19.839C67.9725 19.3585 68.5948 18.7044 69.0435 17.8742C69.4921 17.0412 69.7165 16.1068 69.7165 15.071C69.7165 14.0325 69.4921 13.0928 69.0435 12.2519C68.5948 11.4123 67.9725 10.7515 67.1793 10.271C66.3848 9.79047 65.4995 9.5502 64.5247 9.5502C63.5446 9.5502 62.6579 9.79047 61.8647 10.271C61.0742 10.7515 60.4466 11.4123 59.9846 12.2519C59.5252 13.0928 59.2955 14.0325 59.2955 15.071C59.2955 16.1068 59.5252 17.0412 59.9846 17.8742C60.4466 18.7044 61.0742 19.3585 61.8647 19.839C62.6579 20.3169 63.5446 20.5545 64.5247 20.5545Z" fill="white"/>
    <path d="M82.8957 23.1974C81.567 23.1974 80.3158 22.9932 79.1407 22.5834C77.9656 22.1709 77.0442 21.6317 76.3792 20.9656C76.1255 20.7133 76 20.4103 76 20.0579C76 19.5881 76.195 19.2076 76.5875 18.9153C76.9574 18.6417 77.2993 18.5042 77.6131 18.5042C78.0043 18.5042 78.3769 18.6804 78.7294 19.0328C79.0993 19.4426 79.6562 19.799 80.4013 20.1006C81.1451 20.4036 81.9369 20.5545 82.7782 20.5545C83.8958 20.5545 84.7625 20.3703 85.3794 19.9992C85.995 19.6254 86.3035 19.1275 86.3035 18.5042C86.3035 17.8955 85.999 17.3923 85.3901 16.9932C84.7838 16.5914 83.757 16.2537 82.3081 15.9787C78.5505 15.2566 76.673 13.7122 76.673 11.3442C76.673 10.3831 76.9561 9.57156 77.5223 8.90949C78.0911 8.24475 78.8363 7.74553 79.755 7.41449C80.6763 7.08079 81.6565 6.9126 82.6927 6.9126C83.9639 6.9126 85.103 7.1195 86.1112 7.53195C87.118 7.94175 87.9165 8.50771 88.5041 9.22985C88.7605 9.54353 88.8887 9.85721 88.8887 10.1696C88.8887 10.5006 88.7204 10.8036 88.3866 11.0772C88.1729 11.2347 87.8978 11.3122 87.564 11.3122C87.0539 11.3122 86.5946 11.128 86.1859 10.7569C85.6945 10.3057 85.1738 9.98669 84.6263 9.80115C84.0815 9.61695 83.4165 9.52351 82.634 9.52351C81.7326 9.52351 80.9942 9.67568 80.4173 9.97735C79.8404 10.2804 79.552 10.7062 79.552 11.2534C79.552 11.6459 79.6495 11.9729 79.8458 12.2359C80.0407 12.5002 80.412 12.7458 80.9568 12.9727C81.5043 13.1969 82.2988 13.4158 83.339 13.6294C85.4715 14.0606 86.9831 14.6586 87.8738 15.4234C88.7631 16.1856 89.2091 17.1734 89.2091 18.3867C89.2091 19.2837 88.9634 20.1006 88.472 20.8375C87.9833 21.5716 87.2649 22.1482 86.3141 22.5674C85.3661 22.9879 84.227 23.1974 82.8957 23.1974Z" fill="white"/>
    <path d="M99.8328 20.1434C100.185 20.1434 100.484 20.2809 100.73 20.5545C100.976 20.8295 101.099 21.1819 101.099 21.6117C101.099 22.0428 100.936 22.3952 100.613 22.6689C100.288 22.9438 99.8715 23.08 99.3628 23.08H98.834C97.8752 23.08 96.9992 22.8317 96.206 22.3325C95.4155 21.8346 94.7932 21.1552 94.3419 20.2929C93.8932 19.4319 93.6689 18.4642 93.6689 17.3883V10.1376H92.3175C91.9076 10.1376 91.5751 10.0201 91.3187 9.78518C91.065 9.55025 90.9395 9.25659 90.9395 8.9042C90.9395 8.5171 91.065 8.20475 91.3187 7.96982C91.5751 7.73489 91.9076 7.61743 92.3175 7.61743H93.6689V3.38871C93.6689 2.9589 93.8051 2.60651 94.0802 2.33154C94.3539 2.0579 94.7064 1.92041 95.1378 1.92041C95.5677 1.92041 95.9203 2.0579 96.1953 2.33154C96.4691 2.60651 96.6066 2.9589 96.6066 3.38871V7.61743H99.101C99.5096 7.61743 99.8408 7.73489 100.095 7.96982C100.351 8.20475 100.479 8.5171 100.479 8.9042C100.479 9.25659 100.351 9.55025 100.095 9.78518C99.8408 10.0201 99.5096 10.1376 99.101 10.1376H96.6066V17.3883C96.6066 18.1719 96.8203 18.8273 97.2476 19.3532C97.6776 19.8804 98.2064 20.1434 98.834 20.1434H99.8328Z" fill="white"/>
  </g>
  <defs>
    <clipPath id="clip0_242_360">
      <rect width="101" height="26" fill="white"/>
    </clipPath>
  </defs>
</svg>